<svg xmlns="http://www.w3.org/2000/svg" xmlns:xlink="http://www.w3.org/1999/xlink" contentStyleType="text/css" data-diagram-type="DESCRIPTION" height="1391px" preserveAspectRatio="none" style="width:2909px;height:1391px;background:#FFFFFF;" version="1.1" viewBox="0 0 2909 1391" width="2909px" zoomAndPan="magnify"><?plantuml 1.2026.6?><defs/><g><g class="title" data-source-line="2"><text fill="#000000" font-family="Verdana" font-size="22" font-weight="700" lengthAdjust="spacing" textLength="521.4795" x="1192.9526" y="37.1182">TASK-260715-whtdsf &#8212; CI trust boundary</text></g><!--cluster PRCI--><g class="cluster" data-qualified-name="PRCI" data-source-line="9" id="ent0005"><rect fill="#FFFFFF" height="267.92" rx="2.5" ry="2.5" style="stroke:#000000;stroke-width:1;" width="724" x="1724.69" y="1103.3673"/><text fill="#000000" font-family="Verdana" font-size="14" font-weight="700" lengthAdjust="spacing" textLength="141.4902" x="2015.9449" y="1119.4425">Credential-free CI</text></g><!--cluster Prepare--><g class="cluster" data-qualified-name="Prepare" data-source-line="15" id="ent0009"><rect fill="#FFFFFF" height="392.54" rx="2.5" ry="2.5" style="stroke:#000000;stroke-width:1;" width="446" x="491.69" y="368.7973"/><text fill="#000000" font-family="Verdana" font-size="14" font-weight="700" lengthAdjust="spacing" textLength="235.3135" x="597.0333" y="384.8725">Protected release preparation</text></g><!--entity Policy--><g class="entity" data-qualified-name="PRCI.Policy" data-source-line="10" id="ent0006"><rect fill="#FFFFFF" height="47.0146" rx="2.5" ry="2.5" style="stroke:#000000;stroke-width:1;" width="248.8447" x="1748.27" y="1147.3673"/><rect fill="#FFFFFF" height="10" style="stroke:#000000;stroke-width:1;" width="15" x="1977.1147" y="1152.3673"/><rect fill="#FFFFFF" height="2" style="stroke:#000000;stroke-width:1;" width="4" x="1975.1147" y="1154.3673"/><rect fill="#FFFFFF" height="2" style="stroke:#000000;stroke-width:1;" width="4" x="1975.1147" y="1158.3673"/><text fill="#000000" font-family="Verdana" font-size="14" lengthAdjust="spacing" textLength="208.8447" x="1763.27" y="1181.4425">Board/spec + workflow policy</text></g><!--entity Tests--><g class="entity" data-qualified-name="PRCI.Tests" data-source-line="11" id="ent0007"><rect fill="#FFFFFF" height="47.0146" rx="2.5" ry="2.5" style="stroke:#000000;stroke-width:1;" width="372.7871" x="2032.3" y="1147.3673"/><rect fill="#FFFFFF" height="10" style="stroke:#000000;stroke-width:1;" width="15" x="2385.0871" y="1152.3673"/><rect fill="#FFFFFF" height="2" style="stroke:#000000;stroke-width:1;" width="4" x="2383.0871" y="1154.3673"/><rect fill="#FFFFFF" height="2" style="stroke:#000000;stroke-width:1;" width="4" x="2383.0871" y="1158.3673"/><text fill="#000000" font-family="Verdana" font-size="14" lengthAdjust="spacing" textLength="332.7871" x="2047.3" y="1181.4425">Core/protocol + macOS compile + relay matrix</text></g><!--entity Scans--><g class="entity" data-qualified-name="PRCI.Scans" data-source-line="12" id="ent0008"><rect fill="#FFFFFF" height="47.0146" rx="2.5" ry="2.5" style="stroke:#000000;stroke-width:1;" width="232.9512" x="1756.22" y="1300.2773"/><rect fill="#FFFFFF" height="10" style="stroke:#000000;stroke-width:1;" width="15" x="1969.1712" y="1305.2773"/><rect fill="#FFFFFF" height="2" style="stroke:#000000;stroke-width:1;" width="4" x="1967.1712" y="1307.2773"/><rect fill="#FFFFFF" height="2" style="stroke:#000000;stroke-width:1;" width="4" x="1967.1712" y="1311.2773"/><text fill="#000000" font-family="Verdana" font-size="14" lengthAdjust="spacing" textLength="192.9512" x="1771.22" y="1334.3525">Secret/license/SBOM policy</text></g><!--entity TrustedEntry--><g class="entity" data-qualified-name="Prepare.TrustedEntry" data-source-line="16" id="ent0010"><rect fill="#FFFFFF" height="64.0293" rx="2.5" ry="2.5" style="stroke:#000000;stroke-width:1;" width="268.6553" x="507.37" y="404.7973"/><rect fill="#FFFFFF" height="10" style="stroke:#000000;stroke-width:1;" width="15" x="756.0253" y="409.7973"/><rect fill="#FFFFFF" height="2" style="stroke:#000000;stroke-width:1;" width="4" x="754.0253" y="411.7973"/><rect fill="#FFFFFF" height="2" style="stroke:#000000;stroke-width:1;" width="4" x="754.0253" y="415.7973"/><text fill="#000000" font-family="Verdana" font-size="14" lengthAdjust="spacing" textLength="221.4502" x="522.37" y="438.8725">Default-branch release-prepare</text><text fill="#000000" font-family="Verdana" font-size="14" lengthAdjust="spacing" textLength="228.6553" x="522.37" y="455.8871">+ trusted workflow/policy digest</text></g><!--entity Manifest--><g class="entity" data-qualified-name="Prepare.Manifest" data-source-line="17" id="ent0011"><rect fill="#FFFFFF" height="47.0146" rx="2.5" ry="2.5" style="stroke:#000000;stroke-width:1;" width="255.5713" x="507.91" y="574.3073"/><rect fill="#FFFFFF" height="10" style="stroke:#000000;stroke-width:1;" width="15" x="743.4813" y="579.3073"/><rect fill="#FFFFFF" height="2" style="stroke:#000000;stroke-width:1;" width="4" x="741.4813" y="581.3073"/><rect fill="#FFFFFF" height="2" style="stroke:#000000;stroke-width:1;" width="4" x="741.4813" y="585.3073"/><text fill="#000000" font-family="Verdana" font-size="14" lengthAdjust="spacing" textLength="215.5713" x="522.91" y="608.3825">Immutable candidate manifest</text></g><!--entity Revalidate--><g class="entity" data-qualified-name="Prepare.Revalidate" data-source-line="18" id="ent0012"><rect fill="#FFFFFF" height="47.0146" rx="2.5" ry="2.5" style="stroke:#000000;stroke-width:1;" width="255.585" x="507.9" y="698.3273"/><rect fill="#FFFFFF" height="10" style="stroke:#000000;stroke-width:1;" width="15" x="743.485" y="703.3273"/><rect fill="#FFFFFF" height="2" style="stroke:#000000;stroke-width:1;" width="4" x="741.485" y="705.3273"/><rect fill="#FFFFFF" height="2" style="stroke:#000000;stroke-width:1;" width="4" x="741.485" y="709.3273"/><text fill="#000000" font-family="Verdana" font-size="14" lengthAdjust="spacing" textLength="215.585" x="522.9" y="732.4025">Fresh required-check evidence</text></g><!--entity Fork--><g class="entity" data-qualified-name="Fork" data-source-line="4" id="ent0001"><ellipse cx="2296.6925" cy="947.3573" fill="#FFFFFF" rx="8" ry="8" style="stroke:#000000;stroke-width:1;"/><path d="M2296.6925,955.3573 L2296.6925,982.3573 M2283.6925,963.3573 L2309.6925,963.3573 M2296.6925,982.3573 L2283.6925,997.3573 M2296.6925,982.3573 L2309.6925,997.3573" fill="none" style="stroke:#000000;stroke-width:1;"/><text fill="#000000" font-family="Verdana" font-size="14" lengthAdjust="spacing" textLength="138.0449" x="2227.67" y="1013.4325">Fork / untrusted PR</text></g><!--entity Maintainer--><g class="entity" data-qualified-name="Maintainer" data-source-line="5" id="ent0002"><ellipse cx="2584.6914" cy="947.3573" fill="#FFFFFF" rx="8" ry="8" style="stroke:#000000;stroke-width:1;"/><path d="M2584.6914,955.3573 L2584.6914,982.3573 M2571.6914,963.3573 L2597.6914,963.3573 M2584.6914,982.3573 L2571.6914,997.3573 M2584.6914,982.3573 L2597.6914,997.3573" fill="none" style="stroke:#000000;stroke-width:1;"/><text fill="#000000" font-family="Verdana" font-size="14" lengthAdjust="spacing" textLength="133.9229" x="2517.73" y="1013.4325">Trusted maintainer</text></g><!--entity Requester--><g class="entity" data-qualified-name="Requester" data-source-line="6" id="ent0003"><ellipse cx="270.6986" cy="66.7373" fill="#FFFFFF" rx="8" ry="8" style="stroke:#000000;stroke-width:1;"/><path d="M270.6986,74.7373 L270.6986,101.7373 M257.6986,82.7373 L283.6986,82.7373 M270.6986,101.7373 L257.6986,116.7373 M270.6986,101.7373 L283.6986,116.7373" fill="none" style="stroke:#000000;stroke-width:1;"/><text fill="#000000" font-family="Verdana" font-size="14" lengthAdjust="spacing" textLength="126.5811" x="141.12" y="132.8125">Release requester</text><text fill="#000000" font-family="Verdana" font-size="14" lengthAdjust="spacing" textLength="259.1572" x="141.12" y="149.8271">(short-lived Issues-only GitHub App)</text></g><!--entity Request--><g class="entity" data-qualified-name="Request" data-source-line="7" id="ent0004"><path d="M153.85,245.7673 L387.5355,245.7673 C392.5355,245.7673 392.5355,267.782 392.5355,267.782 C392.5355,267.782 392.5355,289.7966 387.5355,289.7966 L153.85,289.7966 C148.85,289.7966 148.85,267.782 148.85,267.782 C148.85,267.782 148.85,245.7673 153.85,245.7673" fill="#FFFFFF" style="stroke:#000000;stroke-width:1;"/><path d="M387.5355,245.7673 C382.5355,245.7673 382.5355,267.782 382.5355,267.782 C382.5355,289.7966 387.5355,289.7966 387.5355,289.7966" fill="none" style="stroke:#000000;stroke-width:1;"/><text fill="#000000" font-family="Verdana" font-size="14" lengthAdjust="spacing" textLength="105.6836" x="153.85" y="264.8425">issues: opened</text><text fill="#000000" font-family="Verdana" font-size="14" lengthAdjust="spacing" textLength="223.6855" x="153.85" y="281.8571">(untrusted typed request issue)</text></g><!--entity Promote--><g class="entity" data-qualified-name="Promote" data-source-line="21" id="ent0013"><rect fill="#FFFFFF" height="37.0146" rx="2.5" ry="2.5" style="stroke:#000000;stroke-width:1;" width="165.1816" x="995.1" y="824.3373"/><text fill="#000000" font-family="Verdana" font-size="14" lengthAdjust="spacing" textLength="145.1816" x="1005.1" y="848.4125">Serialized promotion</text></g><!--entity MacEnv--><g class="entity" data-qualified-name="MacEnv" data-source-line="22" id="ent0014"><polygon fill="#FFFFFF" points="1144.3,963.8573,1154.3,953.8573,1435.0832,953.8573,1435.0832,990.872,1425.0832,1000.872,1144.3,1000.872,1144.3,963.8573" style="stroke:#000000;stroke-width:1;stroke-linejoin:miter;stroke-miterlimit:10;"/><line style="stroke:#000000;stroke-width:1;" x1="1425.0832" x2="1435.0832" y1="963.8573" y2="953.8573"/><line style="stroke:#000000;stroke-width:1;" x1="1144.3" x2="1425.0832" y1="963.8573" y2="963.8573"/><line style="stroke:#000000;stroke-width:1;" x1="1425.0832" x2="1425.0832" y1="963.8573" y2="1000.872"/><text fill="#000000" font-family="Verdana" font-size="14" lengthAdjust="spacing" textLength="49.9092" x="1159.3" y="987.9325">macOS</text><text fill="#000000" font-family="Verdana" font-size="14" lengthAdjust="spacing" textLength="4.9219" x="1209.2092" y="987.9325">&#160;</text><text fill="#000000" font-family="Verdana" font-size="14" lengthAdjust="spacing" textLength="102.04" x="1214.1311" y="987.9325">signing/notary</text><text fill="#000000" font-family="Verdana" font-size="14" lengthAdjust="spacing" textLength="4.9219" x="1316.1711" y="987.9325">&#160;</text><text fill="#000000" font-family="Verdana" font-size="14" lengthAdjust="spacing" textLength="88.9902" x="1321.093" y="987.9325">environment</text></g><!--entity SparkleEnv--><g class="entity" data-qualified-name="SparkleEnv" data-source-line="23" id="ent0015"><polygon fill="#FFFFFF" points="1079.63,1157.3673,1089.63,1147.3673,1321.7482,1147.3673,1321.7482,1184.382,1311.7482,1194.382,1079.63,1194.382,1079.63,1157.3673" style="stroke:#000000;stroke-width:1;stroke-linejoin:miter;stroke-miterlimit:10;"/><line style="stroke:#000000;stroke-width:1;" x1="1311.7482" x2="1321.7482" y1="1157.3673" y2="1147.3673"/><line style="stroke:#000000;stroke-width:1;" x1="1079.63" x2="1311.7482" y1="1157.3673" y2="1157.3673"/><line style="stroke:#000000;stroke-width:1;" x1="1311.7482" x2="1311.7482" y1="1157.3673" y2="1194.382"/><text fill="#000000" font-family="Verdana" font-size="14" lengthAdjust="spacing" textLength="53.1426" x="1094.63" y="1181.4425">Sparkle</text><text fill="#000000" font-family="Verdana" font-size="14" lengthAdjust="spacing" textLength="4.9219" x="1147.7726" y="1181.4425">&#160;</text><text fill="#000000" font-family="Verdana" font-size="14" lengthAdjust="spacing" textLength="50.1416" x="1152.6945" y="1181.4425">signing</text><text fill="#000000" font-family="Verdana" font-size="14" lengthAdjust="spacing" textLength="4.9219" x="1202.8361" y="1181.4425">&#160;</text><text fill="#000000" font-family="Verdana" font-size="14" lengthAdjust="spacing" textLength="88.9902" x="1207.7579" y="1181.4425">environment</text></g><!--entity RelayEnv--><g class="entity" data-qualified-name="RelayEnv" data-source-line="24" id="ent0016"><polygon fill="#FFFFFF" points="1470.29,963.8573,1480.29,953.8573,1699.0986,953.8573,1699.0986,990.872,1689.0986,1000.872,1470.29,1000.872,1470.29,963.8573" style="stroke:#000000;stroke-width:1;stroke-linejoin:miter;stroke-miterlimit:10;"/><line style="stroke:#000000;stroke-width:1;" x1="1689.0986" x2="1699.0986" y1="963.8573" y2="953.8573"/><line style="stroke:#000000;stroke-width:1;" x1="1470.29" x2="1689.0986" y1="963.8573" y2="963.8573"/><line style="stroke:#000000;stroke-width:1;" x1="1689.0986" x2="1689.0986" y1="963.8573" y2="1000.872"/><text fill="#000000" font-family="Verdana" font-size="14" lengthAdjust="spacing" textLength="38.6094" x="1485.29" y="987.9325">Relay</text><text fill="#000000" font-family="Verdana" font-size="14" lengthAdjust="spacing" textLength="4.9219" x="1523.8994" y="987.9325">&#160;</text><text fill="#000000" font-family="Verdana" font-size="14" lengthAdjust="spacing" textLength="51.3652" x="1528.8213" y="987.9325">staging</text><text fill="#000000" font-family="Verdana" font-size="14" lengthAdjust="spacing" textLength="4.9219" x="1580.1865" y="987.9325">&#160;</text><text fill="#000000" font-family="Verdana" font-size="14" lengthAdjust="spacing" textLength="88.9902" x="1585.1084" y="987.9325">environment</text></g><!--entity Evidence--><g class="entity" data-qualified-name="Evidence" data-source-line="25" id="ent0017"><rect fill="#FFFFFF" height="40.0146" rx="2.5" ry="2.5" style="stroke:#000000;stroke-width:1;" width="257.7051" x="1272.84" y="1303.7773"/><polygon fill="#FFFFFF" points="1513.5451,1308.7773,1513.5451,1322.7773,1525.5451,1322.7773,1525.5451,1314.7773,1519.5451,1308.7773,1513.5451,1308.7773" style="stroke:#000000;stroke-width:1;stroke-linejoin:miter;stroke-miterlimit:10;"/><line style="stroke:#000000;stroke-width:1;" x1="1519.5451" x2="1519.5451" y1="1308.7773" y2="1314.7773"/><line style="stroke:#000000;stroke-width:1;" x1="1525.5451" x2="1519.5451" y1="1314.7773" y2="1314.7773"/><text fill="#000000" font-family="Verdana" font-size="14" lengthAdjust="spacing" textLength="227.7051" x="1282.84" y="1330.8525">Digest-bound redacted evidence</text></g><g class="entity" data-qualified-name="GMN33" data-source-line="44" id="ent0034"><path d="M2473,1271.3773 L2473,1376.1732 L2894.3848,1376.1732 L2894.3848,1281.3773 L2884.3848,1271.3773 L2473,1271.3773" fill="#FFFFFF" style="stroke:#000000;stroke-width:1;"/><path d="M2884.3848,1271.3773 L2884.3848,1281.3773 L2894.3848,1281.3773 L2884.3848,1271.3773" fill="#FFFFFF" style="stroke:#000000;stroke-width:1;"/><text fill="#000000" font-family="Verdana" font-size="13" lengthAdjust="spacing" textLength="290.5005" x="2479" y="1289.4471">No protected environment, signing material,</text><text fill="#000000" font-family="Verdana" font-size="13" lengthAdjust="spacing" textLength="307.2583" x="2479" y="1305.2464">publication token, privileged runner, or trusted</text><text fill="#000000" font-family="Verdana" font-size="13" lengthAdjust="spacing" textLength="320.3218" x="2479" y="1321.0458">release cache/artifact is reachable from PR code.</text><text fill="#000000" font-family="Verdana" font-size="13" lengthAdjust="spacing" textLength="400.3848" x="2479" y="1336.8451">Public Internet egress exists but carries no release authority.</text><text fill="#000000" font-family="Verdana" font-size="13" lengthAdjust="spacing" textLength="355.5894" x="2479" y="1352.6444">All macOS-path blocking checks run on GitHub-hosted</text><text fill="#000000" font-family="Verdana" font-size="13" lengthAdjust="spacing" textLength="374.5244" x="2479" y="1368.4437">macOS; optional relay-native Linux evidence is separate.</text></g><g class="entity" data-qualified-name="GMN36" data-source-line="53" id="ent0037"><path d="M736.14,948.6573 L736.14,1006.0553 A0,0 0 0 0 736.14,1006.0553 L1109.2572,1006.0553 A0,0 0 0 0 1109.2572,1006.0553 L1109.2572,958.6573 L1099.2572,948.6573 L959.41,948.6573 L1056.79,861.7173 L951.41,948.6573 L736.14,948.6573 A0,0 0 0 0 736.14,948.6573" fill="#FFFFFF" style="stroke:#000000;stroke-width:1;"/><path d="M1099.2572,948.6573 L1099.2572,958.6573 L1109.2572,958.6573 L1099.2572,948.6573" fill="#FFFFFF" style="stroke:#000000;stroke-width:1;"/><text fill="#000000" font-family="Verdana" font-size="13" lengthAdjust="spacing" textLength="231.3721" x="742.14" y="966.7271">One production concurrency group.</text><text fill="#000000" font-family="Verdana" font-size="13" lengthAdjust="spacing" textLength="190.5059" x="742.14" y="982.5264">Assets first; signed feed last.</text><text fill="#000000" font-family="Verdana" font-size="13" lengthAdjust="spacing" textLength="352.1172" x="742.14" y="998.3258">Cancellation or unknown evidence is non-promotable.</text></g><g class="entity" data-qualified-name="GMN39" data-source-line="59" id="ent0040"><path d="M11,392.3073 L11,481.3039 A0,0 0 0 0 11,481.3039 L472.3877,481.3039 A0,0 0 0 0 472.3877,481.3039 L472.3877,402.3073 L462.3877,392.3073 L253.32,392.3073 L266.96,290.2773 L245.32,392.3073 L11,392.3073 A0,0 0 0 0 11,392.3073" fill="#FFFFFF" style="stroke:#000000;stroke-width:1;"/><path d="M462.3877,392.3073 L462.3877,402.3073 L472.3877,402.3073 L462.3877,392.3073" fill="#FFFFFF" style="stroke:#000000;stroke-width:1;"/><text fill="#000000" font-family="Verdana" font-size="13" lengthAdjust="spacing" textLength="439.0928" x="17" y="410.3771">No tag/push, repository_dispatch, or selectable-ref workflow starts</text><text fill="#000000" font-family="Verdana" font-size="13" lengthAdjust="spacing" textLength="424.7344" x="17" y="426.1764">release preparation. Refetched/edited issue text is not authority.</text><text fill="#000000" font-family="Verdana" font-size="13" lengthAdjust="spacing" textLength="440.3877" x="17" y="441.9758">Unknown sender, replay, unprotected commit, existing/moved tag,</text><text fill="#000000" font-family="Verdana" font-size="13" lengthAdjust="spacing" textLength="410.2871" x="17" y="457.7751">relative workflow call, or workflow/policy digest mismatch fails</text><text fill="#000000" font-family="Verdana" font-size="13" lengthAdjust="spacing" textLength="344.0112" x="17" y="473.5744">before candidate acceptance or environment access.</text></g><!--link Fork to PRCI--><g class="link" data-entity-1="ent0001" data-entity-2="ent0005" data-link-type="dependency" data-source-line="27" id="lnk18"><path d="M2283.67,1016.5873 C2279.07,1037.7473 2278.32,1062.9973 2293.69,1079.3673 C2313.05,1099.9773 2399.03,1069.1973 2420.69,1087.3673 C2424.1913,1090.3036 2427.1378,1093.7386 2429.6127,1097.5085 C2430.2314,1098.4509 2430.8207,1099.4143 2431.3817,1100.3961 C2431.6622,1100.887 2431.9357,1101.3825 2432.2023,1101.8822 C2432.3356,1102.1321 2432.4672,1102.3831 2432.5971,1102.635 C2432.662,1102.761 2430.4667,1098.4271 2430.5308,1098.5536" fill="none" id="Fork-to-PRCI" style="stroke:#000000;stroke-width:1;"/><polygon fill="#000000" points="2432.7906,1103.0138,2432.2911,1093.1776,2430.5308,1098.5536,2425.1548,1096.7933,2432.7906,1103.0138" style="stroke:#000000;stroke-width:1;stroke-linejoin:miter;stroke-miterlimit:10;"/><text fill="#000000" font-family="Verdana" font-size="13" lengthAdjust="spacing" textLength="103.7271" x="2366.0218" y="1060.4371">read-only token</text><text fill="#000000" font-family="Verdana" font-size="13" lengthAdjust="spacing" textLength="246.3906" x="2294.69" y="1076.2364">no production environment or secrets</text></g><!--link Maintainer to PRCI--><g class="link" data-entity-1="ent0002" data-entity-2="ent0005" data-link-type="dependency" data-source-line="28" id="lnk19"><path d="M2574.84,1016.5173 C2568.54,1036.4173 2559.01,1060.4673 2545.69,1079.3673 C2528.225,1104.1523 2502.5175,1126.4648 2480.9113,1142.7348 C2470.1081,1150.8698 2460.3303,1157.4942 2453.1208,1162.1617 C2452.2196,1162.7451 2451.3585,1163.298 2450.5406,1163.8194 C2450.1316,1164.0801 2449.7335,1164.3329 2449.3465,1164.5778 C2449.153,1164.7003 2453.1919,1162.1543 2453.0041,1162.2727" fill="none" id="Maintainer-to-PRCI" style="stroke:#000000;stroke-width:1;"/><polygon fill="#000000" points="2448.7744,1164.9391,2458.5209,1163.5234,2453.0041,1162.2727,2454.2547,1156.7559,2448.7744,1164.9391" style="stroke:#000000;stroke-width:1;stroke-linejoin:miter;stroke-miterlimit:10;"/><text fill="#000000" font-family="Verdana" font-size="13" lengthAdjust="spacing" textLength="162.1763" x="2563.88" y="1068.4371">identical required checks</text></g><!--link PRCI to Evidence--><g class="link" data-entity-1="ent0005" data-entity-2="ent0017" data-link-type="dependency" data-source-line="29" id="lnk20"><path d="M1724.3284,1272.5018 C1723.7686,1272.5776 1723.2084,1272.6536 1722.6477,1272.7297 C1721.5263,1272.8818 1720.4032,1273.0347 1719.2785,1273.1881 C1714.7795,1273.8017 1710.2539,1274.425 1705.7078,1275.0568 C1696.6156,1276.3204 1687.4413,1277.6179 1678.2325,1278.9398 C1659.815,1281.5836 1641.26,1284.3248 1622.95,1287.0873 C1586.33,1292.6123 1555.6265,1297.4279 1524.0265,1302.5129" fill="none" id="PRCI-to-Evidence" style="stroke:#000000;stroke-width:1;"/><polygon fill="#000000" points="1519.09,1303.3073,1528.6112,1305.8266,1524.0265,1302.5129,1527.3402,1297.9282,1519.09,1303.3073" style="stroke:#000000;stroke-width:1;stroke-linejoin:miter;stroke-miterlimit:10;"/><text fill="#000000" font-family="Verdana" font-size="13" lengthAdjust="spacing" textLength="192.7212" x="2257.37" y="1238.4471">results + manifests + digests</text></g><!--link Requester to Request--><g class="link" data-entity-1="ent0003" data-entity-2="ent0004" data-link-type="dependency" data-source-line="30" id="lnk21"><path d="M270.69,153.1173 C270.69,183.6573 270.69,217.0473 270.69,240.4773" fill="none" id="Requester-to-Request" style="stroke:#000000;stroke-width:1;"/><polygon fill="#000000" points="270.69,245.4773,274.69,236.4773,270.69,240.4773,266.69,236.4773,270.69,245.4773" style="stroke:#000000;stroke-width:1;stroke-linejoin:miter;stroke-miterlimit:10;"/><text fill="#000000" font-family="Verdana" font-size="13" lengthAdjust="spacing" textLength="84.8555" x="379.6319" y="196.8371">Issues: write</text><text fill="#000000" font-family="Verdana" font-size="13" lengthAdjust="spacing" textLength="300.7393" x="271.69" y="212.6364">no Contents, refs, Releases/assets, or Actions</text></g><!--link Request to TrustedEntry--><g class="link" data-entity-1="ent0004" data-entity-2="ent0010" data-link-type="dependency" data-source-line="31" id="lnk22"><path d="M324.19,290.1973 C368.77,308.2973 433.79,335.2873 489.69,360.7973 C519.81,374.5373 548.3392,388.4486 575.8792,402.2386" fill="none" id="Request-to-TrustedEntry" style="stroke:#000000;stroke-width:1;"/><polygon fill="#000000" points="580.35,404.4773,574.0934,396.871,575.8792,402.2386,570.5116,404.0244,580.35,404.4773" style="stroke:#000000;stroke-width:1;stroke-linejoin:miter;stroke-miterlimit:10;"/><text fill="#000000" font-family="Verdana" font-size="13" lengthAdjust="spacing" textLength="352.0664" x="467.2" y="333.8671">issue/request ID + intended version + candidate SHA</text><text fill="#000000" font-family="Verdana" font-size="13" lengthAdjust="spacing" textLength="121.4941" x="582.4861" y="349.6664">all fields untrusted</text></g><!--link TrustedEntry to Manifest--><g class="link" data-entity-1="ent0010" data-entity-2="ent0011" data-link-type="dependency" data-source-line="32" id="lnk23"><path d="M640.51,469.2273 C639.34,500.1773 637.7672,541.7108 636.7372,569.2008" fill="none" id="TrustedEntry-to-Manifest" style="stroke:#000000;stroke-width:1;"/><polygon fill="#000000" points="636.55,574.1973,640.8842,565.3534,636.7372,569.2008,632.8898,565.0538,636.55,574.1973" style="stroke:#000000;stroke-width:1;stroke-linejoin:miter;stroke-miterlimit:10;"/><text fill="#000000" font-family="Verdana" font-size="13" lengthAdjust="spacing" textLength="377.5459" x="639.87" y="525.3771">bind event digest; resolve App sender + commit ancestry</text><text fill="#000000" font-family="Verdana" font-size="13" lengthAdjust="spacing" textLength="342.9448" x="657.1705" y="541.1764">absent intended tag + exact workflow/policy digests</text></g><!--link Manifest to Revalidate--><g class="link" data-entity-1="ent0011" data-entity-2="ent0012" data-link-type="dependency" data-source-line="33" id="lnk24"><path d="M635.69,621.7673 C635.69,643.5773 635.69,671.2073 635.69,692.9873" fill="none" id="Manifest-to-Revalidate" style="stroke:#000000;stroke-width:1;"/><polygon fill="#000000" points="635.69,697.9873,639.69,688.9873,635.69,692.9873,631.69,688.9873,635.69,697.9873" style="stroke:#000000;stroke-width:1;stroke-linejoin:miter;stroke-miterlimit:10;"/><text fill="#000000" font-family="Verdana" font-size="13" lengthAdjust="spacing" textLength="205.6514" x="636.69" y="665.3971">exact protected-branch commit</text></g><!--link Evidence to Revalidate--><g class="link" data-entity-1="ent0017" data-entity-2="ent0012" data-link-type="dependency" data-source-line="34" id="lnk25"><path d="M1272.49,1312.2473 C1040.59,1291.5973 577.69,1241.6373 577.69,1171.8773 C577.69,841.8473 577.69,841.8473 577.69,841.8473 C577.69,805.5273 596.8174,772.7277 613.7274,749.8577" fill="none" id="Evidence-to-Revalidate" style="stroke:#000000;stroke-width:1;"/><polygon fill="#000000" points="616.7,745.8373,608.1329,750.6959,613.7274,749.8577,614.5655,755.4521,616.7,745.8373" style="stroke:#000000;stroke-width:1;stroke-linejoin:miter;stroke-miterlimit:10;"/><text fill="#000000" font-family="Verdana" font-size="13" lengthAdjust="spacing" textLength="121.4751" x="578.69" y="982.9271">exact-head checks</text></g><!--link Revalidate to Promote--><g class="link" data-entity-1="ent0012" data-entity-2="ent0013" data-link-type="dependency" data-source-line="35" id="lnk26"><path d="M720.92,745.7773 C805.58,768.5773 928.822,801.7573 1006.292,822.6173" fill="none" id="Revalidate-to-Promote" style="stroke:#000000;stroke-width:1;"/><polygon fill="#000000" points="1011.12,823.9173,1003.4696,817.7148,1006.292,822.6173,1001.3895,825.4397,1011.12,823.9173" style="stroke:#000000;stroke-width:1;stroke-linejoin:miter;stroke-miterlimit:10;"/><text fill="#000000" font-family="Verdana" font-size="13" lengthAdjust="spacing" textLength="157.9297" x="897.28" y="791.4071">accepted candidate only</text></g><!--link Promote to RelayEnv--><g class="link" data-entity-1="ent0013" data-entity-2="ent0016" data-link-type="dependency" data-source-line="36" id="lnk27"><path d="M1160.69,846.4873 C1233.26,850.7973 1340.66,862.0573 1429.69,891.3573 C1474.44,906.0773 1517.0715,930.9767 1547.3815,950.7367" fill="none" id="Promote-to-RelayEnv" style="stroke:#000000;stroke-width:1;"/><polygon fill="#000000" points="1551.57,953.4673,1546.2152,945.2014,1547.3815,950.7367,1541.8462,951.903,1551.57,953.4673" style="stroke:#000000;stroke-width:1;stroke-linejoin:miter;stroke-miterlimit:10;"/><text fill="#000000" font-family="Verdana" font-size="13" lengthAdjust="spacing" textLength="166.4165" x="1471.05" y="905.4271">scoped staging credential</text></g><!--link Promote to MacEnv--><g class="link" data-entity-1="ent0013" data-entity-2="ent0014" data-link-type="dependency" data-source-line="37" id="lnk28"><path d="M1106.29,861.7173 C1144.26,885.4573 1207.1401,924.7571 1248.8001,950.7971" fill="none" id="Promote-to-MacEnv" style="stroke:#000000;stroke-width:1;"/><polygon fill="#000000" points="1253.04,953.4473,1247.5284,945.2851,1248.8001,950.7971,1243.2881,952.0689,1253.04,953.4473" style="stroke:#000000;stroke-width:1;stroke-linejoin:miter;stroke-miterlimit:10;"/><text fill="#000000" font-family="Verdana" font-size="13" lengthAdjust="spacing" textLength="242.6265" x="1178.34" y="905.4271">scoped Developer ID/notary material</text></g><!--link MacEnv to SparkleEnv--><g class="link" data-entity-1="ent0014" data-entity-2="ent0015" data-link-type="dependency" data-source-line="38" id="lnk29"><path d="M1221.86,1001.2473 C1201.45,1011.6773 1181.39,1026.2973 1169.69,1046.3673 C1151.11,1078.2673 1167.4117,1116.8054 1182.7717,1142.7354" fill="none" id="MacEnv-to-SparkleEnv" style="stroke:#000000;stroke-width:1;"/><polygon fill="#000000" points="1185.32,1147.0373,1184.1746,1137.2553,1182.7717,1142.7354,1177.2916,1141.3325,1185.32,1147.0373" style="stroke:#000000;stroke-width:1;stroke-linejoin:miter;stroke-miterlimit:10;"/><text fill="#000000" font-family="Verdana" font-size="13" lengthAdjust="spacing" textLength="204.6929" x="1170.69" y="1068.4371">final notarized DMG digest only</text></g><!--link RelayEnv to Evidence--><g class="link" data-entity-1="ent0016" data-entity-2="ent0017" data-link-type="dependency" data-source-line="39" id="lnk30"><path d="M1572.54,1001.2273 C1538.62,1065.0773 1445.6356,1240.0716 1414.2256,1299.2016" fill="none" id="RelayEnv-to-Evidence" style="stroke:#000000;stroke-width:1;"/><polygon fill="#000000" points="1411.88,1303.6173,1419.6346,1297.5456,1414.2256,1299.2016,1412.5696,1293.7926,1411.88,1303.6173" style="stroke:#000000;stroke-width:1;stroke-linejoin:miter;stroke-miterlimit:10;"/></g><!--link MacEnv to Evidence--><g class="link" data-entity-1="ent0014" data-entity-2="ent0017" data-link-type="dependency" data-source-line="40" id="lnk31"><path d="M1334.49,1001.3673 C1351.59,1012.5473 1369.43,1027.6473 1379.69,1046.3673 C1426.79,1132.2673 1413.7113,1251.3319 1406.0413,1298.5719" fill="none" id="MacEnv-to-Evidence" style="stroke:#000000;stroke-width:1;"/><polygon fill="#000000" points="1405.24,1303.5073,1410.6307,1295.2647,1406.0413,1298.5719,1402.7341,1293.9826,1405.24,1303.5073" style="stroke:#000000;stroke-width:1;stroke-linejoin:miter;stroke-miterlimit:10;"/></g><!--link SparkleEnv to Evidence--><g class="link" data-entity-1="ent0015" data-entity-2="ent0017" data-link-type="dependency" data-source-line="41" id="lnk32"><path d="M1231.22,1194.7973 C1270.76,1224.4773 1334.9713,1272.6956 1371.9913,1300.4856" fill="none" id="SparkleEnv-to-Evidence" style="stroke:#000000;stroke-width:1;"/><polygon fill="#000000" points="1375.99,1303.4873,1371.1937,1294.8852,1371.9913,1300.4856,1366.391,1301.2832,1375.99,1303.4873" style="stroke:#000000;stroke-width:1;stroke-linejoin:miter;stroke-miterlimit:10;"/></g><!--link PRCI to GMN33--><g class="link" data-entity-1="ent0005" data-entity-2="ent0034" data-link-type="association" data-source-line="44" id="lnk35"><path d="M2448.9494,1176.9968 C2449.3958,1177.2741 2449.8587,1177.5616 2450.3377,1177.8591 C2452.2539,1179.0492 2454.4279,1180.3995 2456.8345,1181.8942 C2466.4609,1187.8729 2479.8081,1196.1623 2495.2538,1205.7548 C2526.145,1224.9398 2565.43,1249.3373 2600.13,1270.8873" fill="none" id="PRCI-GMN33" style="stroke:#000000;stroke-width:1;stroke-dasharray:7,7;"/></g><?plantuml-src VLRRRkCs47tNLx1vQX4hQWkq1NQ10jaaknkqQO8uVGjGqDJ89aoHAaavyHO5-X7zmdv93uUIB6-DFiJHPIvdpimPwekuePP4PwIsHTJHa7YwNFvKVllzrpzyyrtviebrQCG_V_qjhcv5z7s8OkLwMqk_BmgfelFYxBtpMr69tl9xgiN3uvcGGQJdeytJyAf5deW_ycnoDzsEXezaI0OIddxl2Ix-sNuPDix7qkWT0jo6WEUbisOlFkZuiL-9owxxYgCzZZu5_lSapZGRln6k8qir8Xqmnds7to6BOCEZ84NXIKLfrs3axCfJJJPgQSh64u4BDdru12b_548ertREmaASlNFIrrNeI8bpyG866kDUHEUCLllin9V7JbVEKzLv5vro1dwjLFTBDj18VmwOHkxnD7hzoa6UW30SnrYIyXGh12SRg5g-kx-RfrqgQKFnvr5P3yY8E-OXizvvwgINKJkRmV8zVLxaDJMoDx5SUMdLPlGkipSzstCnqZmoK6KeejPhGCyrP9CRjEGpEcxRjezo1OW0NUjQHaBnLZUZwzrmS-pstbFOS4ir-bMg3Qcje9r6wnGDlTr9m_4-Os997itLdu0ORMZTZ81qHuLrDSnoNu9UMstNbNKHCX1aTzexsmB304xTsDtWiGGXMsGOVFvZFBm_E3nogqEKwrFc_3OPInzr0ycW5yneoQf4yRNaXXwLVJFS50LBjIn_pAFx1lQopbgARalssLgN2AXxbHYOfnSGP-0H2yL1jVDOcYMYf9bQ8BW5eM23P3a2uSm14nHus7CpqtKUZr1CIcQtuGvUjuEWNxoEn6Yld8t86nQ8sE1ts1-XaY5GUWpSbrpD59LZpgSlWK-1gt4Tt5u3Yqw1QrIn8nyI6-UpSLn-l7osqXZHQ39rE2o_uYXmoZGEAxAij4sjINJcIjyc7fpPKLfYu1VvVChZsbP70N71nk-HQHMIqmG9um4pUaqJS5fYgKj3tapXEFc0aVswKVsZZ7FMOchIQRzoWvaPEpjxpPEGrG9JgHHrQH0FbAKnAqQB73iFCyo3ScaTZsElfdrxv92LTJ2_1fK6LnuD6zM89SbQBWRZv7SG6NmRZRu9jcQzNzzz62ZB22TKyu6THvkUpS8UFOUI0NZbOdIjS0the_Z57GYVwsenhOOH-QBe-XKwoLiuwt81Nxt3MR1EkxgtK1uFzZXpu_fM4dsffjsWGnAusl0gRK0aeA3BDLqK3vn2t6AWlAKeQ8r13EYmJa9SzH6nlDSKmDHqEiW-uYJMSNzHN6BqUHkMdOmRiJ9ERRbpF1S98zWS3kXounWbsx_5OPmAupK1fakBEZ7_FslRlqvhAq4F-IW2MCnyQjW9PeVjV6zflhQKiwht7e7sOkrTtm4lRmCqtoVH9Sh1P4FuCJB4Y-8gQSsOp3cOxUtMkXTx1CWwM-RJ8H7wFx36JmZq70DTTNtOfFNKkQ3nZRF_hTO1hAdD8YzLayuXH2onmGwV3D22XufFdCmNID0G_AckgDPfe7XzYKYlCGEDyrxzEjIIrmiZ0V4Br7YOoApzHHw0TBYrRfVtp291o3sQi6796mP_UlU8LeSs5IWQgKqeLjJW0sUs2l9sI9Id8FDJ9hq9uS3jlm00?></g></svg>